<svg width="64" height="64" viewBox="0 0 64 64" fill="none" xmlns="http://www.w3.org/2000/svg">
<rect width="64" height="64" rx="32" fill="#213147"/>
<path d="M14.7966 23.768V40.232C14.7966 41.2904 15.351 42.248 16.275 42.7856L30.5382 51.0176C31.4454 51.5384 32.571 51.5384 33.4782 51.0176L47.7414 42.7856C48.6486 42.2648 49.2198 41.2904 49.2198 40.232V23.768C49.2198 22.7096 48.6654 21.752 47.7414 21.2144L33.4782 12.9824C32.571 12.4616 31.4454 12.4616 30.5382 12.9824L16.275 21.2144C15.3678 21.7352 14.8134 22.7096 14.8134 23.768H14.7966Z" fill="#213147"/>
<path d="M35.108 35.192L33.0752 40.7696C33.0248 40.9208 33.0248 41.0888 33.0752 41.2568L36.5696 50.8496L40.6184 48.5144L35.7632 35.192C35.6456 34.8896 35.2256 34.8896 35.108 35.192Z" fill="#12AAFF"/>
<path d="M39.1904 25.8176C39.0728 25.5152 38.6528 25.5152 38.5352 25.8176L36.5024 31.3952C36.452 31.5464 36.452 31.7144 36.5024 31.8824L42.2312 47.5904L46.28 45.2552L39.1904 25.8344V25.8176Z" fill="#12AAFF"/>
<path d="M31.9999 13.604C32.1007 13.604 32.2015 13.6376 32.2855 13.688L47.7079 22.592C47.8927 22.6928 47.9935 22.8944 47.9935 23.096V40.904C47.9935 41.1056 47.8759 41.3072 47.7079 41.408L32.2855 50.312C32.2015 50.3624 32.1007 50.396 31.9999 50.396C31.8991 50.396 31.7983 50.3624 31.7143 50.312L16.2919 41.408C16.1071 41.3072 16.0063 41.1056 16.0063 40.904V23.0792C16.0063 22.8776 16.1239 22.676 16.2919 22.5752L31.7143 13.6712C31.7983 13.6208 31.8991 13.5872 31.9999 13.5872V13.604ZM31.9999 11C31.4455 11 30.9079 11.1344 30.4039 11.42L14.9815 20.324C13.9903 20.8952 13.3855 21.9368 13.3855 23.0792V40.8872C13.3855 42.0296 13.9903 43.0712 14.9815 43.6424L30.4039 52.5464C30.8911 52.832 31.4455 52.9664 31.9999 52.9664C32.5543 52.9664 33.0919 52.832 33.5959 52.5464L49.0183 43.6424C50.0095 43.0712 50.6143 42.0296 50.6143 40.8872V23.0792C50.6143 21.9368 50.0095 20.8952 49.0183 20.324L33.5791 11.42C33.0919 11.1344 32.5375 11 31.9831 11H31.9999Z" fill="#9DCCED"/>
<path d="M21.7854 47.6072L23.2134 43.7096L26.0694 46.0784L23.3982 48.5312L21.7854 47.6072Z" fill="#213147"/>
<path d="M30.6896 21.8192H26.7752C26.4896 21.8192 26.2208 22.004 26.12 22.2728L17.7368 45.2552L21.7856 47.5904L31.0256 22.2728C31.1096 22.0376 30.9416 21.8024 30.7064 21.8024L30.6896 21.8192Z" fill="white"/>
<path d="M37.544 21.8192H33.6296C33.344 21.8192 33.0752 22.004 32.9744 22.2728L23.3984 48.5144L27.4472 50.8496L37.8632 22.2728C37.9472 22.0376 37.7792 21.8024 37.544 21.8024V21.8192Z" fill="white"/>
</svg>
