<svg width="64" height="64" viewBox="0 0 64 64" fill="none" xmlns="http://www.w3.org/2000/svg">
<g clip-path="url(#clip0_2_160)">
<path d="M32 64C49.7334 64 64 49.7334 64 32C64 14.2666 49.7334 0 32 0C14.2666 0 0 14.2666 0 32C0 49.7334 14.2666 64 32 64Z" fill="#2775CA"/>
<path d="M40.7999 37.0666C40.7999 32.4 37.9999 30.8 32.3999 30.1335C28.3999 29.6 27.5999 28.5335 27.5999 26.6666C27.5999 24.7997 28.9333 23.6 31.5999 23.6C33.9999 23.6 35.3333 24.4 35.9999 26.4C36.1333 26.8 36.5334 27.0666 36.9334 27.0666H39.0665C39.5999 27.0666 39.9999 26.6666 39.9999 26.1335V26C39.4665 23.0666 37.0665 20.8 33.9999 20.5335V17.3335C33.9999 16.8 33.5999 16.4 32.9334 16.2666H30.9333C30.3999 16.2666 29.9999 16.6666 29.8665 17.3335V20.4C25.8665 20.9335 23.3333 23.6 23.3333 26.9335C23.3333 31.3335 25.9999 33.0666 31.5999 33.7335C35.3333 34.4 36.5334 35.2 36.5334 37.3335C36.5334 39.4669 34.6665 40.9335 32.1333 40.9335C28.6665 40.9335 27.4665 39.4666 27.0665 37.4666C26.9334 36.9335 26.5333 36.6666 26.1333 36.6666H23.8665C23.3334 36.6666 22.9333 37.0666 22.9333 37.6V37.7335C23.4665 41.0666 25.5999 43.4666 29.9999 44.1335V47.3335C29.9999 47.8666 30.3999 48.2666 31.0665 48.4H33.0665C33.5999 48.4 33.9999 48 34.1334 47.3335V44.1335C38.1334 43.4666 40.7999 40.6666 40.7999 37.0666Z" fill="white"/>
<path d="M25.1999 51.0666C14.7999 47.3334 9.46648 35.7334 13.3334 25.4666C15.3334 19.8666 19.7334 15.6 25.1999 13.6C25.7334 13.3334 25.9999 12.9334 25.9999 12.2666V10.4C25.9999 9.86655 25.7334 9.46656 25.1999 9.33344C25.0665 9.33344 24.7999 9.33343 24.6665 9.46655C11.9999 13.4666 5.06647 26.9334 9.06647 39.6C11.4665 47.0666 17.1999 52.8 24.6665 55.2C25.1999 55.4666 25.7334 55.2 25.8665 54.6666C25.9999 54.5334 25.9999 54.4 25.9999 54.1334V52.2666C25.9999 51.8666 25.5999 51.3334 25.1999 51.0666ZM39.3334 9.46655C38.7999 9.19999 38.2665 9.46655 38.1334 9.99999C37.9999 10.1334 37.9999 10.2666 37.9999 10.5334V12.4C37.9999 12.9334 38.3999 13.4666 38.7999 13.7334C49.1999 17.4666 54.5334 29.0666 50.6665 39.3334C48.6665 44.9334 44.2665 49.2 38.7999 51.2C38.2665 51.4666 37.9999 51.8666 37.9999 52.5334V54.4C37.9999 54.9334 38.2665 55.3334 38.7999 55.4666C38.9334 55.4666 39.1999 55.4666 39.3334 55.3334C51.9999 51.3334 58.9334 37.8666 54.9334 25.2C52.5334 17.6 46.6665 11.8666 39.3334 9.46655Z" fill="white"/>
</g>
<defs>
<clipPath id="clip0_2_160">
<rect width="64" height="64" fill="white"/>
</clipPath>
</defs>
</svg>
